<?xml version="1.0" encoding="UTF-8" standalone="no"?>
<svg width="16px" height="16px" viewBox="0 0 16 16" version="1.1" xmlns="http://www.w3.org/2000/svg" xmlns:xlink="http://www.w3.org/1999/xlink">
    <!-- Generator: Sketch 48.2 (47327) - http://www.bohemiancoding.com/sketch -->
    <title>icon/calendar</title>
    <desc>Created with Sketch.</desc>
    <defs></defs>
    <g id="Icons" stroke="none" stroke-width="1" fill="none" fill-rule="evenodd" transform="translate(-166.000000, -550.000000)">
        <g id="icon/calendar" transform="translate(166.000000, 550.000000)" fill="#C3C3C8">
            <path d="M14,14 L2,14 L2,7 L14,7 L14,14 Z M15,2 L13,2 L13,1 C13,0.4 12.6,0 12,0 L11,0 C10.4,0 10,0.4 10,1 L10,2 L6,2 L6,1 C6,0.4 5.6,0 5,0 L4,0 C3.4,0 3,0.4 3,1 L3,2 L1,2 C0.4,2 0,2.4 0,3 L0,15 C0,15.6 0.4,16 1,16 L15,16 C15.6,16 16,15.6 16,15 L16,3 C16,2.4 15.6,2 15,2 L15,2 Z" id="Fill-81"></path>
        </g>
    </g>
</svg>