<svg xmlns="http://www.w3.org/2000/svg" width="58" height="58" viewBox="0 0 58 58">
    <g fill="none" fill-rule="evenodd" stroke="#262628" stroke-linecap="round" stroke-width="2" transform="translate(1 1)">
        <path d="M44.77 24.733c2.151 2.159 2.151 6.475-2.176 7.914 2.164 4.317-.987 5.756-4.327 5.756-.714 2.86-3.711 3.606-5.047 3.597-1.645-.012-2.887-1.209-2.887-2.878V11.537c0-3.25.95-4.07 2.887-4.07 4.332 0 6.715 2.564 7.219 4.316 4.286.521 7.85 5.666 4.332 12.95zM44.887 24.014s-.85 3.597-6.62 3.597M36.103 16.1c0 1.439 1.442 4.317 5.77 4.317M15.897 24.733c-1.999 2.163-2.152 6.475 2.176 7.914-2.164 3.597.988 6.475 4.327 6.475.714 2.86 3.606 2.878 5.046 2.878 1.645 0 2.887-1.209 2.887-2.878V11.537c0-3.25-.949-4.07-2.887-4.07-4.331 0-6.714 2.564-7.218 4.316-4.286.521-7.85 5.666-4.331 12.95z"/>
        <path d="M24.564 24.014s-1.512-1.439-4.328-1.439c-2.456 0-4.34 2.158-4.34 2.158M24.56 34.805c0-.719.004-5.036-4.332-5.755M26.002 14.661c0 .72-.717 2.878-4.323 2.878M38.267 38.403c-2.164-.72-3.606-2.159-3.606-5.036"/>
        <circle cx="50.667" cy="4.667" r="4.667" fill="#FB7D22" fill-opacity=".4"/>
        <circle cx="5" cy="24" r="5" fill="#CEF0AF"/>
        <circle cx="44" cy="51" r="5" fill="#CFE6FF"/>
        <circle cx="13" cy="45" r="3" fill="#FB7D22" fill-opacity=".4"/>
        <circle cx="53" cy="35" r="3" fill="#CEF0AF"/>
        <circle cx="13" cy="3" r="3" fill="#CFE6FF"/>
    </g>
</svg>
