<?xml version="1.0" encoding="UTF-8" standalone="no"?>
<svg width="56px" height="56px" viewBox="0 0 56 56" version="1.1" xmlns="http://www.w3.org/2000/svg" xmlns:xlink="http://www.w3.org/1999/xlink">
    <!-- Generator: Sketch 48.2 (47327) - http://www.bohemiancoding.com/sketch -->
    <title>icon/illustration/globe</title>
    <desc>Created with Sketch.</desc>
    <defs>
        <circle id="path-1" cx="28" cy="28" r="28"></circle>
        <circle id="path-3" cx="28" cy="28" r="28"></circle>
    </defs>
    <g id="Icons" stroke="none" stroke-width="1" fill="none" fill-rule="evenodd" transform="translate(-214.000000, -213.000000)">
        <g id="icon/illustration/globe" transform="translate(214.000000, 213.000000)">
            <g>
                <rect id="Rectangle" x="0" y="0" width="56" height="56"></rect>
                <mask id="mask-2" fill="white">
                    <use xlink:href="#path-1"></use>
                </mask>
                <circle stroke="#262628" stroke-width="2" cx="28" cy="28" r="27"></circle>
                <path d="M11.5903058,5 C13.4657202,6.30806676 14.904709,9.63305517 14.904709,9.63305517 C14.904709,9.63305517 16.5247536,10.6950626 17.0314398,12.0490264 C17.538126,13.4029903 17.0598142,15.2439731 17.0598142,15.2439731 C17.0598142,15.2439731 18.4947495,19.2204451 17.8191679,20.3359991 C17.1435863,21.4515531 14.2723646,22.1693324 14.2723646,22.1693324 C14.2723646,22.1693324 13.0900969,24.2410756 10.6404381,24.6401252 C9.0366074,24.7982151 7.43142557,25.8334492 7.43142557,27.9855123 C7.43142557,30.1375753 9.71218898,33.6436022 9.71218898,33.6436022 C9.71218898,33.6436022 12.0767245,34.7349328 12.4145153,35.5317571 C12.7523061,36.3285814 12.8671549,38.1848632 12.8671549,38.1848632 C12.8671549,38.1848632 15.1168416,41.9305749 13.8494506,44.081363 C13.4454528,44.7672694 11.5686872,45.2772369 11.5686872,45.2772369 L8.93797249,49 C3.03834763,42.2661132 0.0592422689,35.1024126 0.000656389269,27.508898 C-0.0579294904,19.9153835 3.80528697,12.4124175 11.5903058,5 Z" id="Shape" stroke="#262628" stroke-width="2" fill="#CEE6FF" stroke-linecap="round" stroke-linejoin="round" mask="url(#mask-2)"></path>
                <path d="M49,10.9499049 C49,10.9499049 43.4472271,13.3781591 43.4472271,13.3781591 C43.4472271,13.3781591 39.9361454,17.3060262 37.6299354,16.9808716 C35.3237255,16.6557171 32.9786904,14.0544806 32.9786904,14.0544806 C32.9786904,14.0544806 33.1404616,9.2604018 32.4131384,9.01588557 C31.6858152,8.77136935 29.744561,10.0719876 28.53063,9.0965239 C27.3166991,8.12106023 28.0168448,5.37155329 28.0168448,5.37155329 C28.0168448,5.37155329 25.3754449,4.5443601 25.0519026,3.64953475 C24.7283602,2.75470941 25.0134705,1.7634629 25.2580685,1 C30.0827159,0.291621907 34.6423589,0.837343752 38.9369975,2.63716554 C45.3789554,5.33689821 49,10.9499049 49,10.9499049 Z" id="Shape" stroke="#262628" stroke-width="2" fill="#CEE6FF" stroke-linecap="round" stroke-linejoin="round" mask="url(#mask-2)"></path>
                <path d="M48.8685914,30.2873164 C49.5127408,31.8019039 47.6588789,35.6674167 46.1309565,36.4221606 C44.1070392,37.4216863 42.7272712,38.6761931 42.1629963,39.5533279 C41.5987215,40.4304628 40.8579497,44.0460941 39.0066643,44.7638658 C37.155379,45.4803626 32.7648568,49.5702587 30.4304595,48.9328061 C28.0960621,48.2953534 28.0947738,42.796687 29.7051473,40.3259205 C30.6662181,38.8508551 29.5441099,35.6240699 29.4629471,34.5098027 C29.3817843,33.3955355 26.0012883,31.3225395 26,30.2069974 C26,28.4540026 29.8648963,23.832471 29.8648963,23.832471 C29.8648963,23.832471 33.0315347,22.7972479 33.9977587,23.0356552 C34.9639828,23.2740625 36.7895022,24.3896046 36.7895022,24.3896046 C36.7895022,24.3896046 40.4121983,24.7083309 41.7816599,25.4248277 C43.0816191,26.6376451 43.7315987,27.2440539 43.7315987,27.2440539 C43.7315987,27.2440539 48.224442,28.7727289 48.8685914,30.2873164 Z" id="Shape" stroke="#262628" stroke-width="2" fill="#CEE6FF" stroke-linecap="round" stroke-linejoin="round" mask="url(#mask-2)"></path>
                <mask id="mask-4" fill="white">
                    <use xlink:href="#path-3"></use>
                </mask>
                <circle stroke="#262628" stroke-width="2" cx="28" cy="28" r="27"></circle>
            </g>
        </g>
    </g>
</svg>