<?xml version="1.0" encoding="UTF-8" standalone="no"?>
<svg width="53px" height="56px" viewBox="0 0 53 56" version="1.1" xmlns="http://www.w3.org/2000/svg" xmlns:xlink="http://www.w3.org/1999/xlink">
    <!-- Generator: Sketch 48.2 (47327) - http://www.bohemiancoding.com/sketch -->
    <title>icon/illustration/idea</title>
    <desc>Created with Sketch.</desc>
    <defs></defs>
    <g id="Icons" stroke="none" stroke-width="1" fill="none" fill-rule="evenodd" transform="translate(-323.000000, -213.000000)">
        <g id="icon/illustration/idea" transform="translate(320.000000, 213.000000)">
            <g>
                <rect id="Rectangle" x="0" y="0" width="56" height="56"></rect>
                <path d="M36.9099125,56 L36.9099125,48.9285714 L40.4278687,49.1530612 C45.3076144,49.6020408 49.3929828,45.7857143 49.3929828,40.9591837 L49.3929828,34.8979592 L53.9322811,32.6530612 C54.9536232,32.0918367 55.2940706,30.8571429 54.7266583,29.8469388 L49.3929828,20.755102 C48.1446758,10.3163265 42.5840354,1 26.6964914,1 C10.8089474,1 4,11.6632653 4,23.4489796 C4,28.1632653 5.47527194,32.5408163 7.971886,36.1326531 C10.4685001,39.7244898 11.943772,43.9897959 11.943772,48.3673469 L11.943772,56" id="Shape" stroke="#262628" stroke-width="2"></path>
                <path d="M39,23.251046 L39,19.8619247 L34.95,19.1841004 C34.725,18.2803347 34.3875,17.376569 33.825,16.4728033 L36.1875,13.083682 L33.825,10.7112971 L30.5625,13.083682 C29.775,12.6317992 28.875,12.1799163 27.8625,11.9539749 L27.1875,8 L23.8125,8 L23.1375,11.9539749 C22.125,12.1799163 21.225,12.5188285 20.4375,13.083682 L17.175,10.7112971 L14.8125,13.083682 L17.175,16.3598326 C16.725,17.1506276 16.275,18.0543933 16.05,19.0711297 L12,19.8619247 L12,23.251046 L15.9375,23.9288703 C16.1625,24.9456067 16.6125,25.8493724 17.0625,26.6401674 L14.7,29.916318 L17.0625,32.2887029 L20.325,29.916318 C21.1125,30.3682008 22.0125,30.8200837 23.025,31.0460251 L23.7,35 L27.075,35 L27.75,30.9330544 C28.65,30.707113 29.55,30.2552301 30.45,29.8033473 L33.825,32.1757322 L36.1875,29.8033473 L33.825,26.5271967 C34.275,25.7364017 34.725,24.832636 34.95,23.8158996 L39,23.251046 Z M25.5,26.0753138 C23.025,26.0753138 21,24.041841 21,21.5564854 C21,19.0711297 23.025,17.0376569 25.5,17.0376569 C27.975,17.0376569 30,19.0711297 30,21.5564854 C30,24.041841 27.975,26.0753138 25.5,26.0753138 Z" id="Shape" stroke="#262628" stroke-width="2" fill="#CEE6FF" stroke-linecap="square"></path>
            </g>
        </g>
    </g>
</svg>