<?xml version="1.0" encoding="UTF-8" standalone="no"?>
<svg width="56px" height="50px" viewBox="0 0 56 50" version="1.1" xmlns="http://www.w3.org/2000/svg" xmlns:xlink="http://www.w3.org/1999/xlink">
    <!-- Generator: Sketch 48.2 (47327) - http://www.bohemiancoding.com/sketch -->
    <title>icon/illustration/members</title>
    <desc>Created with Sketch.</desc>
    <defs></defs>
    <g id="Icons" stroke="none" stroke-width="1" fill="none" fill-rule="evenodd" transform="translate(-425.000000, -216.000000)">
        <g id="icon/illustration/members" transform="translate(425.000000, 213.000000)">
            <g>
                <rect id="Rectangle" x="0" y="0" width="56" height="56"></rect>
                <g id="Group" transform="translate(35.000000, 19.000000)" fill-rule="nonzero" stroke="#262628" stroke-width="2">
                    <circle id="Oval" fill="#FFFFFF" cx="10" cy="5" r="5"></circle>
                    <path d="M20,24 L20,19.0283333 C20,17.845 19.38,16.7566667 18.3616667,16.1533333 C16.74,15.195 13.93,14 10,14 C6.02,14 3.22666667,15.1883333 1.62333333,16.1466667 C0.613333333,16.75 0,17.835 0,19.0116667 L0,24 L20,24 Z" id="Shape" fill="#CEF0AF"></path>
                </g>
                <g id="Group" transform="translate(1.000000, 19.000000)" fill-rule="nonzero" stroke="#262628" stroke-width="2">
                    <circle id="Oval" fill="#FFFFFF" cx="10" cy="5" r="5"></circle>
                    <path d="M20,24 L20,19.0283333 C20,17.845 19.38,16.7566667 18.3616667,16.1533333 C16.74,15.195 13.93,14 10,14 C6.02,14 3.22666667,15.1883333 1.62333333,16.1466667 C0.613333333,16.75 0,17.835 0,19.0116667 L0,24 L20,24 Z" id="Shape" fill="#FFE3CF"></path>
                </g>
                <circle id="Oval" stroke="#262628" stroke-width="2" fill="#FFFFFF" fill-rule="nonzero" cx="19" cy="9" r="5"></circle>
                <circle id="Oval" stroke="#262628" stroke-width="2" fill="#FFFFFF" fill-rule="nonzero" cx="37" cy="9" r="5"></circle>
                <g id="Group" transform="translate(14.000000, 20.000000)" fill-rule="nonzero" stroke="#262628" stroke-width="2">
                    <circle id="Oval" fill="#FFFFFF" cx="14" cy="7" r="7"></circle>
                    <path d="M28,32 L28,25.0396667 C28,23.383 27.132,21.8593333 25.7063333,21.0146667 C23.436,19.673 19.502,18 14,18 C8.428,18 4.51733333,19.6636667 2.27266667,21.0053333 C0.858666667,21.85 0,23.369 0,25.0163333 L0,32 L28,32 Z" id="Shape" fill="#CEE6FF"></path>
                </g>
            </g>
        </g>
    </g>
</svg>