<?xml version="1.0" encoding="UTF-8" standalone="no"?>
<svg width="56px" height="56px" viewBox="0 0 56 56" version="1.1" xmlns="http://www.w3.org/2000/svg" xmlns:xlink="http://www.w3.org/1999/xlink">
    <!-- Generator: Sketch 48.2 (47327) - http://www.bohemiancoding.com/sketch -->
    <title>icon/illustration/money</title>
    <desc>Created with Sketch.</desc>
    <defs></defs>
    <g id="Icons" stroke="none" stroke-width="1" fill="none" fill-rule="evenodd" transform="translate(-530.000000, -213.000000)">
        <g id="icon/illustration/money" transform="translate(530.000000, 213.000000)">
            <g>
                <rect id="Rectangle" x="0" y="0" width="56" height="56"></rect>
                <g id="money-bag" transform="translate(1.000000, 1.000000)" stroke="#262628" stroke-width="2">
                    <path d="M37.25078,38.6693182 L25.7073796,13.6363636 L30.1789661,0 L7.82103393,0 L12.2926204,13.6363636 L0.749219994,38.6693182 C-1.68332302,43.9443182 2.10411068,50 7.83444869,50 L30.1655513,50 C35.8958893,50 39.683323,43.9443182 37.25078,38.6693182 Z" id="Shape" stroke-linecap="square"></path>
                    <path d="M12,13 L26,13" id="Shape"></path>
                    <path d="M19,13 L19,9" id="Shape" stroke-linecap="square"></path>
                    <g id="currency-dollar" transform="translate(15.000000, 22.000000)" stroke-linecap="square">
                        <path d="M4,0 L4,15" id="Shape"></path>
                        <path d="M8,2.7798169 C6.24175824,1.84832706 0.703296703,1.15394372 0.703296703,4.36063985 C0.703296703,8.19939418 7.73626374,6.84449986 7.73626374,10.2317357 C7.73626374,13.6189715 3.16483516,13.3649288 0,12.2640771" id="Shape"></path>
                    </g>
                </g>
                <g id="coins" transform="translate(26.000000, 19.000000)" fill="#CEF0AF" stroke="#262628" stroke-linecap="square" stroke-width="2">
                    <path d="M29,24 L29,29.25 C29,31.32075 25.4181818,33 21,33 C16.5818182,33 13,31.32075 13,29.25 L13,24" id="Shape"></path>
                    <path d="M29,19 L29,24.25 C29,26.32075 25.4181818,28 21,28 C16.5818182,28 13,26.32075 13,24.25 L13,19" id="Shape"></path>
                    <path d="M29,14 L29,19.25 C29,21.32075 25.4181818,23 21,23 C16.5818182,23 13,21.32075 13,19.25 L13,14" id="Shape"></path>
                    <path d="M29,9 L29,14.25 C29,16.32075 25.4181818,18 21,18 C16.5818182,18 13,16.32075 13,14.25 L13,9" id="Shape"></path>
                    <path d="M29,4 L29,9.25 C29,11.32075 25.4181818,13 21,13 C16.5818182,13 13,11.32075 13,9.25 L13,4" id="Shape"></path>
                    <ellipse id="Oval" cx="21" cy="3.75" rx="8" ry="3.75"></ellipse>
                    <path d="M16,27 L16,32.25 C16,34.32075 12.4181818,36 8,36 C3.58181818,36 0,34.32075 0,32.25 L0,27" id="Shape"></path>
                    <path d="M16,22 L16,27.25 C16,29.32075 12.4181818,31 8,31 C3.58181818,31 0,29.32075 0,27.25 L0,22" id="Shape"></path>
                    <path d="M16,17 L16,22.25 C16,24.32075 12.4181818,26 8,26 C3.58181818,26 0,24.32075 0,22.25 L0,17" id="Shape"></path>
                    <ellipse id="Oval" cx="8" cy="16.75" rx="8" ry="3.75"></ellipse>
                </g>
            </g>
        </g>
    </g>
</svg>