<?xml version="1.0" encoding="UTF-8" standalone="no"?>
<svg width="21px" height="18px" viewBox="0 0 21 18" version="1.1" xmlns="http://www.w3.org/2000/svg" xmlns:xlink="http://www.w3.org/1999/xlink">
    <!-- Generator: Sketch 48.2 (47327) - http://www.bohemiancoding.com/sketch -->
    <title>icon/general/product</title>
    <desc>Created with Sketch.</desc>
    <defs></defs>
    <g id="Icons" stroke="none" stroke-width="1" fill="none" fill-rule="evenodd" transform="translate(-253.000000, -548.000000)" stroke-linecap="square">
        <g id="icon/general/product" transform="translate(254.000000, 549.000000)" stroke="#444444">
            <g id="Shape">
                <path d="M18.3490909,2.4 L16.4509091,0.6 C16.0290909,0.2 15.5018182,0 14.9745455,0 L4.00727273,0 C3.48,0 2.95272727,0.2 2.53090909,0.6 L0.632727273,2.4 C0.210909091,2.8 0,3.3 0,3.8 L0,14 C0,15.1 0.949090909,16 2.10909091,16 L16.8727273,16 C18.0327273,16 18.9818182,15.1 18.9818182,14 L18.9818182,3.8 C18.9818182,3.3 18.7709091,2.8 18.3490909,2.4 Z" stroke-width="2"></path>
                <path d="M0,4 L18.9818182,4" stroke-width="2"></path>
                <path d="M10.5454545,12 L15.8181818,12" stroke-width="2"></path>
            </g>
        </g>
    </g>
</svg>