<?xml version="1.0" encoding="UTF-8" standalone="no"?>
<svg width="56px" height="56px" viewBox="0 0 56 56" version="1.1" xmlns="http://www.w3.org/2000/svg" xmlns:xlink="http://www.w3.org/1999/xlink">
    <!-- Generator: Sketch 48.2 (47327) - http://www.bohemiancoding.com/sketch -->
    <title>icon/illustration/win</title>
    <desc>Created with Sketch.</desc>
    <defs></defs>
    <g id="Icons" stroke="none" stroke-width="1" fill="none" fill-rule="evenodd" transform="translate(-741.000000, -211.000000)">
        <g id="icon/illustration/win" transform="translate(741.000000, 211.000000)">
            <g>
                <rect id="Rectangle" x="0" y="0" width="56" height="56"></rect>
                <g id="podium-trophy" transform="translate(1.000000, 1.000000)" stroke="#262628" stroke-width="2">
                    <path d="M19.7461067,11.0454545 L17.1818182,11.0454545 C15.1484057,11.0454545 13.5,9.39704883 13.5,7.36363636 L13.5,1.22727273 L19.6363636,1.22727273" id="Shape"></path>
                    <path d="M34.2616414,11.0454545 L36.8181818,11.0454545 C38.851592,11.0454545 40.5,9.39704883 40.5,7.36363636 L40.5,1.22727273 L34.3636364,1.22727273" id="Shape"></path>
                    <rect id="Rectangle-path" stroke-linecap="square" x="17.1818182" y="31.9090909" width="19.6363636" height="22.0909091"></rect>
                    <polyline id="Shape" stroke-linecap="square" points="17.1818182 54 0 54 0 41.7272727 17.1818182 41.7272727"></polyline>
                    <polyline id="Shape" stroke-linecap="square" points="36.8181818 44.1818182 54 44.1818182 54 54 36.8181818 54"></polyline>
                    <path d="M27.000007,17.1818182 L26.999993,17.1818182 C22.9331726,17.1818182 19.6363636,13.8850092 19.6363636,9.81818881 L19.6363636,0 L34.3636364,0 L34.3636364,9.81818881 C34.3636364,13.8850092 31.0668274,17.1818182 27.000007,17.1818182 Z" id="Shape" fill="#CEE6FF" stroke-linecap="square"></path>
                    <path d="M27,17.1818182 L27,24.5454545" id="Shape" stroke-linecap="square"></path>
                    <path d="M22.0909091,24.5454545 L31.9090909,24.5454545" id="Shape" stroke-linecap="square"></path>
                </g>
            </g>
        </g>
    </g>
</svg>