<?xml version="1.0" encoding="UTF-8" standalone="no"?>
<svg width="32px" height="29px" viewBox="0 0 32 29" version="1.1" xmlns="http://www.w3.org/2000/svg" xmlns:xlink="http://www.w3.org/1999/xlink">
    <!-- Generator: Sketch 48.2 (47327) - http://www.bohemiancoding.com/sketch -->
    <title>icon/product/qa/consulting</title>
    <desc>Created with Sketch.</desc>
    <defs></defs>
    <g id="Icons" stroke="none" stroke-width="1" fill="none" fill-rule="evenodd" transform="translate(-541.000000, -445.000000)">
        <g id="icon/product/qa/consulting" transform="translate(542.000000, 446.000000)">
            <g>
                <circle id="Oval" stroke="#262628" stroke-width="2" fill="#FFFFFF" fill-rule="nonzero" cx="24" cy="15" r="3"></circle>
                <circle id="Oval" stroke="#262628" stroke-width="2" fill="#FFFFFF" fill-rule="nonzero" cx="6" cy="15" r="3"></circle>
                <path d="M12,27 L12,24.017 C12,23.307 11.628,22.654 11.017,22.292 C10.044,21.717 8.358,21 6,21 C3.612,21 1.936,21.713 0.974,22.288 C0.368,22.65 0,23.301 0,24.007 L0,27 L12,27 Z" id="Shape" stroke="#262628" stroke-width="2" fill="#CEE6FF" fill-rule="nonzero"></path>
                <path d="M30,27 L30,24.017 C30,23.307 29.628,22.654 29.017,22.292 C28.044,21.717 26.358,21 24,21 C21.612,21 19.936,21.713 18.974,22.288 C18.368,22.65 18,23.301 18,24.007 L18,27 L30,27 Z" id="Shape" stroke="#262628" stroke-width="2" fill="#CEF0AF" fill-rule="nonzero"></path>
                <polyline id="Shape" stroke="#0681FF" stroke-width="2" points="10 4 13 7 20 0"></polyline>
            </g>
        </g>
    </g>
</svg>