<?xml version="1.0" encoding="UTF-8" standalone="no"?>
<svg width="32px" height="27px" viewBox="0 0 32 27" version="1.1" xmlns="http://www.w3.org/2000/svg" xmlns:xlink="http://www.w3.org/1999/xlink">
    <!-- Generator: Sketch 48.2 (47327) - http://www.bohemiancoding.com/sketch -->
    <title>icon/product/qa/os-automation</title>
    <desc>Created with Sketch.</desc>
    <defs></defs>
    <g id="Icons" stroke="none" stroke-width="1" fill="none" fill-rule="evenodd" transform="translate(-257.000000, -446.000000)">
        <g id="icon/product/qa/os-automation" transform="translate(258.000000, 447.000000)">
            <g>
                <g id="Group-2">
                    <path d="M7.08570939,22.9508448 C2.90867596,21.0734666 0,16.8764121 0,12 C0,5.372583 5.372583,0 12,0 C18.627417,0 24,5.372583 24,12 C24,16.873366 21.0949567,21.0682229 16.9221167,22.947324 L14.2961494,16.0045833 C15.6820541,15.2082174 16.6153846,13.7131042 16.6153846,12 C16.6153846,9.45099346 14.5490065,7.38461538 12,7.38461538 C9.45099346,7.38461538 7.38461538,9.45099346 7.38461538,12 C7.38461538,13.7037931 8.30782771,15.1919584 9.68129255,15.9915361 L7.08570939,22.9508448 Z" id="Combined-Shape" fill="#CEF0AF" fill-rule="nonzero"></path>
                    <path d="M16.9221167,22.947324 L14.2961494,16.0045833 C15.6820541,15.2082174 16.6153846,13.7131042 16.6153846,12 C16.6153846,9.45099346 14.5490065,7.38461538 12,7.38461538 C9.45099346,7.38461538 7.38461538,9.45099346 7.38461538,12 C7.38461538,13.7037931 8.30782771,15.1919584 9.68129255,15.9915361 L7.08570939,22.9508448 C2.90867596,21.0734666 0,16.8764121 0,12 C0,5.372583 5.372583,0 12,0 C18.627417,0 24,5.372583 24,12" id="Combined-Shape" stroke="#262628" stroke-width="2"></path>
                </g>
                <g id="Group-20" stroke-linecap="square" transform="translate(20.000000, 15.000000)" stroke="#262628" stroke-width="2">
                    <circle id="Oval" cx="5" cy="5" r="3"></circle>
                    <path d="M5,2 L5,0" id="Shape"></path>
                    <path d="M7,2.415 L8.415,1" id="Shape"></path>
                    <path d="M8,5 L10,5" id="Shape"></path>
                    <path d="M7.2925,7 L8.7075,8.415" id="Shape"></path>
                    <path d="M5,8 L5,10" id="Shape"></path>
                    <path d="M2.415,7 L1,8.415" id="Shape"></path>
                    <path d="M2,5 L0,5" id="Shape"></path>
                    <path d="M2.415,2.415 L1,1" id="Shape"></path>
                </g>
            </g>
        </g>
    </g>
</svg>