<?xml version="1.0" encoding="UTF-8" standalone="no"?>
<svg width="32px" height="26px" viewBox="0 0 32 26" version="1.1" xmlns="http://www.w3.org/2000/svg" xmlns:xlink="http://www.w3.org/1999/xlink">
    <!-- Generator: Sketch 48.2 (47327) - http://www.bohemiancoding.com/sketch -->
    <title>icon/product/qa/website-performance</title>
    <desc>Created with Sketch.</desc>
    <defs></defs>
    <g id="Icons" stroke="none" stroke-width="1" fill="none" fill-rule="evenodd" transform="translate(-185.000000, -446.000000)">
        <g id="icon/product/qa/website-performance" transform="translate(186.000000, 447.000000)">
            <g>
                <path d="M26,24 L4,24 C1.791,24 0,22.209 0,20 L30,20 C30,22.209 28.209,24 26,24 Z" id="Shape" stroke="#444444" stroke-width="2" fill="#747480" fill-rule="nonzero" stroke-linecap="square"></path>
                <path d="M3,19 L3,2.375 C3,1.0628125 3.895,0 5,0 L25,0 C26.105,0 27,1.0628125 27,2.375 L27,19" id="Shape" stroke="#444444" stroke-width="2" fill="#FFFFFF" fill-rule="nonzero" stroke-linecap="square"></path>
                <g id="Group-18" transform="translate(8.000000, 8.000000)" stroke="#1A85FF" stroke-width="2">
                    <polyline id="Shape" points="13 0 7 6 3 2 0 5"></polyline>
                    <polyline id="Shape" stroke-linecap="square" points="9 0 13 0 13 4"></polyline>
                </g>
            </g>
        </g>
    </g>
</svg>