<?xml version="1.0" encoding="UTF-8" standalone="no"?>
<svg width="32px" height="32px" viewBox="0 0 32 32" version="1.1" xmlns="http://www.w3.org/2000/svg" xmlns:xlink="http://www.w3.org/1999/xlink">
    <!-- Generator: Sketch 48.2 (47327) - http://www.bohemiancoding.com/sketch -->
    <title>icon/product/app</title>
    <desc>Created with Sketch.</desc>
    <defs></defs>
    <g id="Icons" stroke="none" stroke-width="1" fill="none" fill-rule="evenodd" transform="translate(-1467.000000, -443.000000)">
        <g id="icon/product/app" transform="translate(1468.000000, 444.000000)">
            <g>
                <rect id="Rectangle" stroke="#3A3A3F" stroke-width="2" fill="#FFFFFF" fill-rule="nonzero" x="0" y="0" width="27" height="22" rx="2"></rect>
                <rect id="Rectangle-2" fill="#CEE6FF" fill-rule="nonzero" x="6" y="2" width="19" height="18" rx="0.5"></rect>
                <polygon id="Shape" fill="#3A3A3F" fill-rule="nonzero" points="3 9 3 13 5 13 5 9"></polygon>
                <path d="M28,30 L22,30 C20.8136364,30 20,29.105 20,28 L20,14 C20,12.895 20.8136364,12 22,12 L28,12 C29.1863636,12 30,12.895 30,14 L30,28 C30,29.105 29.1863636,30 28,30 Z" id="Shape" stroke="#3A3A3F" stroke-width="2" fill="#FFFFFF" fill-rule="nonzero" stroke-linecap="square"></path>
                <path d="M24.4,26 L25.3333333,26" id="Shape" stroke="#3A3A3F" stroke-width="2" stroke-linecap="square"></path>
            </g>
        </g>
    </g>
</svg>