<?xml version="1.0" encoding="UTF-8" standalone="no"?>
<svg width="32px" height="32px" viewBox="0 0 32 32" version="1.1" xmlns="http://www.w3.org/2000/svg" xmlns:xlink="http://www.w3.org/1999/xlink">
    <!-- Generator: Sketch 48.2 (47327) - http://www.bohemiancoding.com/sketch -->
    <title>icon/product/website</title>
    <desc>Created with Sketch.</desc>
    <defs></defs>
    <g id="Icons" stroke="none" stroke-width="1" fill="none" fill-rule="evenodd" transform="translate(-113.000000, -443.000000)">
        <g id="icon/product/website" transform="translate(114.000000, 444.000000)">
            <g>
                <circle id="Oval" stroke="#3A3A3F" stroke-width="2" fill="#FFFFFF" fill-rule="nonzero" stroke-linecap="square" cx="15" cy="15" r="15"></circle>
                <path d="M14,0 L16,0 L16,4 L14,4 L14,0 Z M24.8994949,3.6862915 L26.3137085,5.10050506 L23.4852814,7.92893219 L22.0710678,6.51471863 L24.8994949,3.6862915 Z M30,14 L30,16 L26,16 L26,14 L30,14 Z M26.3137085,24.8994949 L24.8994949,26.3137085 L22.0710678,23.4852814 L23.4852814,22.0710678 L26.3137085,24.8994949 Z M16,30 L14,30 L14,26 L16,26 L16,30 Z M5.10050506,26.3137085 L3.6862915,24.8994949 L6.51471863,22.0710678 L7.92893219,23.4852814 L5.10050506,26.3137085 Z M0,16 L0,14 L4,14 L4,16 L0,16 Z M3.6862915,5.10050506 L5.10050506,3.6862915 L7.92893219,6.51471863 L6.51471863,7.92893219 L3.6862915,5.10050506 Z" id="Rectangle-3" fill="#3A3A3F" fill-rule="nonzero"></path>
                <polygon id="Shape" fill="#0681FF" fill-rule="nonzero" points="22 8 12 12 8 22 18 18"></polygon>
            </g>
        </g>
    </g>
</svg>