<svg xmlns="http://www.w3.org/2000/svg" width="150" height="21" viewBox="0 0 150 21">
    <g fill="none" fill-rule="evenodd">
        <g fill="#FFF" fill-rule="nonzero">
            <path d="M145.88 4.32V2.455h-.672V2.22h1.615v.232h-.675v1.864zM148.98 4.32V2.556l-.72 1.764h-.108l-.724-1.764V4.32h-.265v-2.1h.38l.655 1.615.655-1.615h.38v2.096zM61.04 14.916V7.415h-1.768V6.413h1.769V3.531h1.172V6.41h2.168V7.41h-2.168v7.331c0 .85.354 1.44 1.107 1.44.45 0 .88-.181 1.192-.5l.443.872a2.42 2.42 0 0 1-1.815.647c-1.415.006-2.1-.847-2.1-2.285zM65.839 11.666c0-3.075 2.01-5.518 5.129-5.518 3.118 0 5.151 2.443 5.151 5.518 0 3.076-1.99 5.541-5.151 5.541-3.16 0-5.13-2.465-5.13-5.54zm9.042 0c0-2.332-1.391-4.494-3.913-4.494s-3.891 2.158-3.891 4.494 1.415 4.523 3.89 4.523c2.477 0 3.914-2.167 3.914-4.523zM79.788 15.243v5.715h-1.15V6.42h1.15v1.657a4.604 4.604 0 0 1 3.714-1.92c2.852 0 4.775 2.14 4.775 5.519 0 3.38-1.923 5.54-4.775 5.54a4.579 4.579 0 0 1-3.714-1.973zm7.25-3.577c0-2.552-1.349-4.494-3.736-4.494a4.329 4.329 0 0 0-3.514 1.877v5.212a4.367 4.367 0 0 0 3.514 1.919c2.387 0 3.737-1.961 3.737-4.514zM90.11 11.666c0-3.075 2.057-5.518 5.195-5.518a4.43 4.43 0 0 1 3.78 1.79l-.793.691a3.395 3.395 0 0 0-2.918-1.46c-2.5 0-4.025 1.964-4.025 4.494s1.526 4.523 4.025 4.523a3.414 3.414 0 0 0 2.918-1.483l.796.698a4.39 4.39 0 0 1-3.78 1.81c-3.14-.004-5.197-2.469-5.197-5.545zM100.591 11.666c0-3.075 2.011-5.518 5.129-5.518 3.118 0 5.152 2.443 5.152 5.518 0 3.076-1.992 5.541-5.152 5.541s-5.129-2.465-5.129-5.54zm9.043 0c0-2.332-1.392-4.494-3.914-4.494-2.522 0-3.9 2.162-3.9 4.494 0 2.333 1.414 4.523 3.89 4.523s3.92-2.167 3.92-4.523h.004zM121.26 16.945v-1.68a4.567 4.567 0 0 1-3.714 1.939c-2.83 0-4.775-2.139-4.775-5.518 0-3.38 1.946-5.538 4.769-5.538a4.55 4.55 0 0 1 3.714 1.964V2.397h1.172v14.539l-1.166.01zm0-2.64V9.092a4.272 4.272 0 0 0-3.514-1.919c-2.365 0-3.737 1.965-3.737 4.523 0 2.56 1.372 4.494 3.737 4.494a4.299 4.299 0 0 0 3.514-1.883zM124.951 11.666c0-3.053 2.188-5.518 5.152-5.518 3.249 0 5.04 2.552 5.04 5.583v.307h-8.93c.11 2.29 1.656 4.2 4.178 4.2a4.724 4.724 0 0 0 3.492-1.47l.596.74a5.547 5.547 0 0 1-4.166 1.7c-3.128 0-5.362-2.292-5.362-5.542zm5.13-4.523c-2.523 0-3.78 2.181-3.869 4.013h7.759c-.023-1.803-1.215-4.026-3.89-4.026v.013zM137.662 16.945V6.41h1.166v1.81c.907-1.18 2.122-2.03 3.603-2.03v1.244a2.446 2.446 0 0 0-.574-.045c-1.084 0-2.541.969-3.029 1.877v7.68h-1.166z"/>
        </g>
        <path fill="#FAFAFB" d="M45.053 14.578c-1.475-3.381-2.915-6.118-4.258-7.881C47.4 5.474 51.893 6.18 52.813 8.975c.728 2.213-.697 5.821-3.774 9.785-.54.696-1.148 1.084-1.82 1.22a99.025 99.025 0 0 0-2.166-5.403zM27.642 9.764c-.323.15-.683.314-1.132.516-.45-.202-.81-.366-1.133-.516-3.222-1.495-7.3-2.875-11.144-3.741C17.94 2.2 22.377 0 26.51 0c4.567 0 8.682 1.972 12.315 6.014-3.855.865-7.95 2.25-11.183 3.75zM12.22 6.7C9.204 10.431 6.218 16.695 5.886 20c-.715-.116-1.357-.508-1.925-1.24C.884 14.796-.541 11.188.187 8.975c.92-2.797 5.42-3.502 12.034-2.276zm16.023 3.905C31.597 9.103 37 7.36 39.614 6.918c.212.252.429.536.65.85.923 1.306 1.909 3.1 2.925 5.259a88.412 88.412 0 0 1 2.273 5.31c.233.593.444 1.146.63 1.648-.402-.069-.82-.201-1.246-.388a8.213 8.213 0 0 1-1.3-.722c-8.093-5.325-8.614-5.65-11.413-6.887a22.262 22.262 0 0 0-3.97-1.348l.08-.036zM6.948 19.981c.372-3.2 3.484-9.594 6.464-13.053 2.907.503 7.783 2.137 11.293 3.691-3.149.688-6.05 2.245-10.33 5.147.144-.097-1.864 1.27-2.402 1.63a50.524 50.524 0 0 1-2.328 1.482c-.953.564-1.9.965-2.697 1.103z"/>
    </g>
</svg>
